<svg xmlns="http://www.w3.org/2000/svg" viewBox="0 0 314 204" width="314" height="204" role="img" aria-label="Virux V mark"><title>Virux V mark</title><desc>Monochrome V mark, transparent background</desc><g transform="translate(16,16)"><path d="M134.12 165.60 C130.69 162.11 122.76 154.14 116.50 147.87 C105.12 136.48 105.12 136.48 105.06 133.43 C105.02 131.75 104.93 130.09 104.85 129.75 C104.77 129.35 96.55 120.95 81.88 106.25 C57.38 81.71 58.21 82.63 58.77 80.68 C59.09 79.55 59.07 65.21 58.74 64.35 C58.55 63.85 58.56 63.32 58.78 62.46 C59.21 60.80 58.42 59.08 56.63 57.75 C55.94 57.23 54.67 56.04 53.82 55.09 C52.96 54.15 51.93 53.05 51.53 52.66 C50.65 51.81 32.30 33.46 31.46 32.60 C30.64 31.76 27.27 28.39 26.38 27.51 C9.94 11.40 0.42 1.73 0.70 1.44 C0.95 1.20 3.88 1.10 13.75 1.00 C23.46 0.90 26.55 0.80 26.79 0.56 C27.21 0.14 29.47 0.18 30.25 0.62 C30.59 0.82 31.51 0.99 32.30 0.99 C33.08 1.00 33.98 1.10 34.30 1.23 C35.57 1.73 80.57 47.15 81.19 48.56 C81.77 49.86 81.77 49.94 81.73 59.37 C81.67 73.90 80.26 70.82 92.59 83.21 C104.37 95.04 104.99 95.55 105.00 93.39 C105.02 90.63 104.85 90.48 122.62 108.24 C139.46 125.06 139.68 125.25 141.19 124.89 C141.65 124.77 147.25 119.34 158.38 108.23 C167.46 99.17 175.02 91.75 175.18 91.75 C175.64 91.75 175.86 92.28 176.00 93.75 C176.24 96.41 176.06 96.55 188.44 84.21 C194.55 78.11 199.88 72.69 200.28 72.15 C201.00 71.17 201.00 71.17 201.00 59.83 C201.00 50.65 201.07 48.33 201.35 47.68 C201.84 46.56 247.05 1.49 248.44 0.73 C249.47 0.17 249.54 0.17 250.23 0.58 C250.89 0.96 252.27 1.00 265.69 1.00 C282.66 1.00 283.38 1.06 281.31 2.31 C280.93 2.53 267.88 15.47 252.31 31.05 C224.00 59.38 224.00 59.38 223.99 71.00 C223.98 83.85 224.00 83.61 222.38 84.72 C221.83 85.09 221.06 85.87 220.67 86.45 C220.28 87.03 219.55 87.82 219.06 88.19 C218.00 88.99 214.94 92.06 213.92 93.35 C213.53 93.84 212.79 94.48 212.27 94.77 C211.75 95.06 211.15 95.60 210.93 95.97 C210.71 96.34 210.26 96.79 209.93 96.97 C209.60 97.15 209.15 97.60 208.93 97.97 C208.71 98.34 208.26 98.80 207.92 98.97 C207.59 99.15 207.07 99.73 206.78 100.25 C206.48 100.78 205.84 101.53 205.35 101.92 C203.08 103.72 199.72 107.08 197.92 109.35 C197.53 109.84 196.79 110.48 196.27 110.77 C195.75 111.06 195.15 111.60 194.93 111.97 C194.71 112.34 194.27 112.79 193.95 112.96 C193.63 113.13 193.14 113.60 192.87 114.00 C192.61 114.40 192.13 114.86 191.82 115.03 C191.51 115.20 191.25 115.41 191.25 115.51 C191.25 115.71 184.12 122.90 183.63 123.19 C183.46 123.29 183.03 123.85 182.67 124.42 C182.31 125.00 181.59 125.78 181.08 126.17 C180.56 126.56 179.74 127.27 179.26 127.76 C178.77 128.24 177.97 128.88 177.48 129.19 C176.25 129.95 176.00 130.65 175.99 133.45 C175.99 134.92 175.86 136.10 175.67 136.44 C175.42 136.88 140.43 172.11 140.39 171.97 C140.38 171.95 137.56 169.08 134.12 165.60 Z M114.25 85.63 C100.02 71.39 88.30 59.55 88.21 59.31 C88.11 59.07 88.03 55.17 88.02 50.63 C88.00 42.39 88.00 42.39 79.57 33.95 C71.13 25.50 71.13 25.50 71.04 23.66 C70.95 21.81 71.23 20.75 71.82 20.75 C71.98 20.75 87.25 35.88 105.75 54.38 C139.38 88.00 139.38 88.00 140.50 88.00 C141.62 88.00 141.62 88.00 175.25 54.38 C208.34 21.29 209.58 20.11 209.90 21.38 C210.70 24.55 210.46 24.91 201.71 33.69 C191.86 43.57 193.00 41.32 192.98 50.92 C192.97 55.30 192.89 59.07 192.79 59.32 C192.51 60.02 140.93 111.50 140.50 111.50 C140.29 111.50 128.47 99.86 114.25 85.63 Z" fill="currentColor" fill-rule="evenodd"/></g></svg>
